<?xml version="1.0" encoding="iso-8859-1"?>
<!-- Generator: Adobe Illustrator 19.0.0, SVG Export Plug-In . SVG Version: 6.00 Build 0)  -->
<svg version="1.1" id="Capa_1" xmlns="http://www.w3.org/2000/svg" xmlns:xlink="http://www.w3.org/1999/xlink" x="0px" y="0px"
	 viewBox="0 0 512.001 512.001" style="enable-background:new 0 0 512.001 512.001;" xml:space="preserve">
<path style="fill:#85453D;" d="M239.763,91.338c-4.204,0-7.611,3.408-7.611,7.611v11.671c0,42.53-34.6,77.13-77.13,77.13h-30.446
	v15.223h30.446c50.924,0,92.352-41.429,92.352-92.352V98.949C247.374,94.746,243.966,91.338,239.763,91.338z"/>
<path style="fill:#FFE2A8;" d="M272.238,91.338c4.204,0,7.611,3.408,7.611,7.611v11.671c0,42.53,34.6,77.13,77.13,77.13h30.446
	v15.223h-30.446c-50.924,0-92.352-41.429-92.352-92.352V98.949C264.627,94.746,268.035,91.338,272.238,91.338z"/>
<path style="fill:#A45E43;" d="M54.813,304.29l-7.314-2.108c-24.829-7.155-42.17-30.214-42.17-56.078
	c0-32.177,26.177-58.355,58.355-58.355h7.611v15.223h-7.611c-23.783,0-43.132,19.348-43.132,43.132
	c0,19.119,12.814,36.164,31.162,41.451l7.314,2.108L54.813,304.29z"/>
<path style="fill:#FFCB63;" d="M448.317,304.459h-7.611v-15.223h7.611c23.783,0,43.132-19.348,43.132-43.132
	s-19.348-43.132-43.132-43.132h-7.611v-15.223h7.611c32.177,0,58.355,26.177,58.355,58.355S480.494,304.459,448.317,304.459z"/>
<path style="fill:#40211D;" d="M172.652,497.166l-25.242-8.414V314.607h-15.223v179.631c0,3.276,2.097,6.185,5.204,7.221
	l30.446,10.149c0.799,0.266,1.61,0.393,2.408,0.393c3.187,0,6.156-2.018,7.22-5.206
	C178.795,502.805,176.639,498.495,172.652,497.166z"/>
<path style="fill:#60312C;" d="M111.76,497.166l-25.242-8.414V314.607H71.296v179.631c0,3.276,2.097,6.185,5.204,7.221
	l30.446,10.149c0.799,0.266,1.61,0.393,2.408,0.393c3.187,0,6.156-2.018,7.22-5.206C117.903,502.805,115.748,498.495,111.76,497.166
	z"/>
<path style="fill:#2DADE3;" d="M134.725,167.452h-30.446L83.981,289.236l71.04-30.446v-71.04
	C155.022,176.539,145.935,167.452,134.725,167.452z"/>
<path style="fill:#49C9FF;" d="M104.279,167.452H83.981c-11.21,0-20.297,9.087-20.297,20.297v101.486h60.892V187.749
	C124.576,176.539,115.489,167.452,104.279,167.452z"/>
<polygon style="fill:#CF301B;" points="155.022,258.79 124.576,258.79 104.279,296.847 124.576,334.905 155.022,334.905 "/>
<path style="fill:#FF4128;" d="M124.576,258.79H63.684c-9.468,10.732-15.223,24.817-15.223,40.255v35.86h76.115V258.79z"/>
<g>
	<circle style="fill:#FFFFFF;" cx="109.352" cy="197.898" r="7.611"/>
	<circle style="fill:#FFFFFF;" cx="109.352" cy="228.344" r="7.611"/>
</g>
<path style="fill:#85453D;" d="M109.353,45.669v91.338c25.222,0,45.669-20.446,45.669-45.669S134.575,45.669,109.353,45.669z"/>
<path style="fill:#A45E43;" d="M124.576,91.338c0-25.222-6.816-45.669-15.223-45.669c-25.222,0-45.669,20.446-45.669,45.669
	s20.446,45.669,45.669,45.669C117.76,137.006,124.576,116.56,124.576,91.338z"/>
<circle style="fill:#40211D;" cx="109.352" cy="22.834" r="22.834"/>
<path style="fill:#116F97;" d="M364.591,302.969v185.784l-25.242,8.414c-3.988,1.329-6.143,5.64-4.814,9.628
	c1.064,3.19,4.033,5.206,7.22,5.206c0.798,0,1.61-0.127,2.408-0.393l30.446-10.149c3.109-1.036,5.204-3.945,5.204-7.221v-191.27
	H364.591z"/>
<g>
	<path style="fill:#084F6D;" d="M425.483,302.969v185.784l-25.242,8.414c-3.988,1.329-6.143,5.64-4.814,9.628
		c1.064,3.19,4.033,5.206,7.22,5.206c0.798,0,1.61-0.127,2.408-0.393L435.5,501.46c3.109-1.036,5.204-3.945,5.204-7.221v-191.27
		H425.483z"/>
	<path style="fill:#084F6D;" d="M402.648,258.79v76.115c25.222,0,45.669-20.446,45.669-45.669L402.648,258.79z"/>
</g>
<path style="fill:#116F97;" d="M417.871,289.236l-15.223-30.446l-45.669,30.446c0,25.222,20.446,45.669,45.669,45.669
	C411.055,334.905,417.871,314.458,417.871,289.236z"/>
<path style="fill:#FFCB63;" d="M428.02,167.452h-30.446l20.297,121.783h30.446V187.749
	C448.317,176.539,439.23,167.452,428.02,167.452z"/>
<path style="fill:#FFE2A8;" d="M397.574,167.452h-20.297c-11.21,0-20.297,9.087-20.297,20.297v101.486h60.892V187.749
	C417.871,176.539,408.784,167.452,397.574,167.452z"/>
<path style="fill:#C27749;" d="M445.708,76.115l-43.06-20.297v81.189c25.222,0,45.669-20.446,45.669-45.669
	C448.317,85.998,447.391,80.877,445.708,76.115z"/>
<path style="fill:#40211D;" d="M402.648,45.669l14.353,30.446h28.706C439.437,58.379,422.531,45.669,402.648,45.669z"/>
<path style="fill:#E18F4E;" d="M417.001,76.115l-43.06-20.287c-10.343,8.373-16.962,21.166-16.962,35.51
	c0,25.222,20.446,45.669,45.669,45.669c8.407,0,15.223-20.446,15.223-45.669C417.871,85.998,417.563,80.877,417.001,76.115z"/>
<path style="fill:#60312C;" d="M402.648,76.115h14.353c-2.091-17.736-7.726-30.446-14.353-30.446
	c-10.878,0-20.863,3.81-28.706,10.159C378.12,67.652,389.384,76.115,402.648,76.115z"/>
<g>
	<path style="fill:#FFCB63;" d="M211.347,106.561h-15.223c-4.204,0-7.611-3.408-7.611-7.611c0-4.204,3.408-7.611,7.611-7.611h15.223
		c4.204,0,7.611,3.408,7.611,7.611C218.958,103.153,215.55,106.561,211.347,106.561z"/>
	<path style="fill:#FFCB63;" d="M315.877,106.561h-15.223c-4.204,0-7.611-3.408-7.611-7.611c0-4.204,3.408-7.611,7.611-7.611h15.223
		c4.204,0,7.611,3.408,7.611,7.611C323.489,103.153,320.081,106.561,315.877,106.561z"/>
	<path style="fill:#FFCB63;" d="M287.576,74.985c-1.948,0-3.896-0.743-5.382-2.23c-2.973-2.973-2.973-7.792,0-10.764l10.764-10.764
		c2.973-2.973,7.792-2.973,10.764,0c2.973,2.973,2.973,7.792,0,10.764l-10.764,10.764C291.472,74.242,289.523,74.985,287.576,74.985
		z"/>
	<path style="fill:#FFCB63;" d="M256.001,61.907c-4.204,0-7.611-3.408-7.611-7.611V39.072c0-4.204,3.408-7.611,7.611-7.611
		c4.204,0,7.611,3.408,7.611,7.611v15.223C263.612,58.499,260.204,61.907,256.001,61.907z"/>
	<path style="fill:#FFCB63;" d="M224.425,74.985c-1.948,0-3.896-0.743-5.382-2.23L208.28,61.992c-2.973-2.973-2.973-7.792,0-10.764
		c2.973-2.973,7.792-2.973,10.764,0l10.764,10.764c2.973,2.973,2.973,7.792,0,10.764C228.321,74.242,226.374,74.985,224.425,74.985z
		"/>
</g>
<g>
</g>
<g>
</g>
<g>
</g>
<g>
</g>
<g>
</g>
<g>
</g>
<g>
</g>
<g>
</g>
<g>
</g>
<g>
</g>
<g>
</g>
<g>
</g>
<g>
</g>
<g>
</g>
<g>
</g>
</svg>
